<mxfile host="Electron" agent="Mozilla/5.0 (Windows NT 10.0; Win64; x64) AppleWebKit/537.36 (KHTML, like Gecko) draw.io/25.0.2 Chrome/128.0.6613.186 Electron/32.2.5 Safari/537.36" version="25.0.2" pages="2">
  <diagram name="main" id="YaaIqZ7R83KY3QQ_icnw">
    <mxGraphModel dx="1290" dy="717" grid="1" gridSize="10" guides="1" tooltips="1" connect="1" arrows="1" fold="1" page="1" pageScale="1" pageWidth="827" pageHeight="1169" math="0" shadow="0">
      <root>
        <mxCell id="0" />
        <mxCell id="1" parent="0" />
        <mxCell id="BIZ6X_1vbxG-3BhxrjRd-1" value="" style="edgeStyle=orthogonalEdgeStyle;rounded=0;orthogonalLoop=1;jettySize=auto;html=1;" edge="1" parent="1" source="BIZ6X_1vbxG-3BhxrjRd-2" target="BIZ6X_1vbxG-3BhxrjRd-4">
          <mxGeometry relative="1" as="geometry" />
        </mxCell>
        <mxCell id="BIZ6X_1vbxG-3BhxrjRd-2" value="Начало" style="ellipse;whiteSpace=wrap;html=1;" vertex="1" parent="1">
          <mxGeometry x="340" y="40" width="120" height="40" as="geometry" />
        </mxCell>
        <mxCell id="BIZ6X_1vbxG-3BhxrjRd-3" value="" style="edgeStyle=orthogonalEdgeStyle;rounded=0;orthogonalLoop=1;jettySize=auto;html=1;" edge="1" parent="1" source="BIZ6X_1vbxG-3BhxrjRd-4" target="BIZ6X_1vbxG-3BhxrjRd-8">
          <mxGeometry relative="1" as="geometry" />
        </mxCell>
        <mxCell id="BIZ6X_1vbxG-3BhxrjRd-4" value="int main()" style="shape=process;whiteSpace=wrap;html=1;backgroundOutline=1;" vertex="1" parent="1">
          <mxGeometry x="340" y="120" width="120" height="40" as="geometry" />
        </mxCell>
        <mxCell id="BIZ6X_1vbxG-3BhxrjRd-5" value="" style="endArrow=none;dashed=1;html=1;rounded=0;" edge="1" parent="1" target="BIZ6X_1vbxG-3BhxrjRd-6">
          <mxGeometry width="50" height="50" relative="1" as="geometry">
            <mxPoint x="400" y="100" as="sourcePoint" />
            <mxPoint x="560" y="100" as="targetPoint" />
          </mxGeometry>
        </mxCell>
        <mxCell id="BIZ6X_1vbxG-3BhxrjRd-6" value="&lt;div&gt;#include &amp;lt;iostream&amp;gt;&lt;/div&gt;&lt;div&gt;#include &amp;lt;clocale&amp;gt;&lt;/div&gt;&lt;div&gt;using namespace std;&lt;/div&gt;&lt;div&gt;&lt;br&gt;&lt;/div&gt;&lt;div&gt;int interpolation_search(int* arr, int n, int key);&lt;/div&gt;" style="strokeWidth=2;html=1;shape=mxgraph.flowchart.annotation_1;align=left;pointerEvents=1;" vertex="1" parent="1">
          <mxGeometry x="540" y="50" width="50" height="100" as="geometry" />
        </mxCell>
        <mxCell id="BIZ6X_1vbxG-3BhxrjRd-7" value="" style="edgeStyle=orthogonalEdgeStyle;rounded=0;orthogonalLoop=1;jettySize=auto;html=1;" edge="1" parent="1" source="BIZ6X_1vbxG-3BhxrjRd-8" target="BIZ6X_1vbxG-3BhxrjRd-11">
          <mxGeometry relative="1" as="geometry" />
        </mxCell>
        <mxCell id="BIZ6X_1vbxG-3BhxrjRd-8" value="setlocale(LC_ALL, &quot;RU&quot;);" style="whiteSpace=wrap;html=1;" vertex="1" parent="1">
          <mxGeometry x="330" y="200" width="140" height="40" as="geometry" />
        </mxCell>
        <mxCell id="BIZ6X_1vbxG-3BhxrjRd-9" value="{" style="text;html=1;align=center;verticalAlign=middle;resizable=0;points=[];autosize=1;strokeColor=none;fillColor=none;" vertex="1" parent="1">
          <mxGeometry x="370" y="160" width="30" height="30" as="geometry" />
        </mxCell>
        <mxCell id="BIZ6X_1vbxG-3BhxrjRd-10" value="" style="edgeStyle=orthogonalEdgeStyle;rounded=0;orthogonalLoop=1;jettySize=auto;html=1;" edge="1" parent="1" source="BIZ6X_1vbxG-3BhxrjRd-11" target="BIZ6X_1vbxG-3BhxrjRd-13">
          <mxGeometry relative="1" as="geometry" />
        </mxCell>
        <mxCell id="BIZ6X_1vbxG-3BhxrjRd-11" value="const int n = 10;" style="whiteSpace=wrap;html=1;" vertex="1" parent="1">
          <mxGeometry x="330" y="260" width="140" height="40" as="geometry" />
        </mxCell>
        <mxCell id="BIZ6X_1vbxG-3BhxrjRd-12" value="" style="edgeStyle=orthogonalEdgeStyle;rounded=0;orthogonalLoop=1;jettySize=auto;html=1;" edge="1" parent="1" source="BIZ6X_1vbxG-3BhxrjRd-13" target="BIZ6X_1vbxG-3BhxrjRd-15">
          <mxGeometry relative="1" as="geometry" />
        </mxCell>
        <mxCell id="BIZ6X_1vbxG-3BhxrjRd-13" value="int arr[n] = {1, 3, 5, 7, 9, 11, 13, 15, 17, 19};" style="whiteSpace=wrap;html=1;" vertex="1" parent="1">
          <mxGeometry x="270" y="320" width="260" height="40" as="geometry" />
        </mxCell>
        <mxCell id="BIZ6X_1vbxG-3BhxrjRd-14" value="" style="edgeStyle=orthogonalEdgeStyle;rounded=0;orthogonalLoop=1;jettySize=auto;html=1;" edge="1" parent="1" source="BIZ6X_1vbxG-3BhxrjRd-15" target="BIZ6X_1vbxG-3BhxrjRd-18">
          <mxGeometry relative="1" as="geometry" />
        </mxCell>
        <mxCell id="BIZ6X_1vbxG-3BhxrjRd-15" value="cout &amp;lt;&amp;lt; &quot;Массив:\n&quot;;" style="shape=parallelogram;perimeter=parallelogramPerimeter;whiteSpace=wrap;html=1;fixedSize=1;" vertex="1" parent="1">
          <mxGeometry x="325" y="380" width="150" height="40" as="geometry" />
        </mxCell>
        <mxCell id="BIZ6X_1vbxG-3BhxrjRd-16" value="" style="edgeStyle=orthogonalEdgeStyle;rounded=0;orthogonalLoop=1;jettySize=auto;html=1;" edge="1" parent="1" source="BIZ6X_1vbxG-3BhxrjRd-18" target="BIZ6X_1vbxG-3BhxrjRd-20">
          <mxGeometry relative="1" as="geometry" />
        </mxCell>
        <mxCell id="BIZ6X_1vbxG-3BhxrjRd-17" style="edgeStyle=orthogonalEdgeStyle;rounded=0;orthogonalLoop=1;jettySize=auto;html=1;entryX=0.5;entryY=0;entryDx=0;entryDy=0;" edge="1" parent="1" source="BIZ6X_1vbxG-3BhxrjRd-18" target="BIZ6X_1vbxG-3BhxrjRd-24">
          <mxGeometry relative="1" as="geometry">
            <mxPoint x="400" y="620" as="targetPoint" />
            <Array as="points">
              <mxPoint x="500" y="460" />
              <mxPoint x="500" y="600" />
              <mxPoint x="400" y="600" />
            </Array>
          </mxGeometry>
        </mxCell>
        <mxCell id="BIZ6X_1vbxG-3BhxrjRd-18" value="for (int i = 0; i &amp;lt; n; i++)" style="shape=hexagon;perimeter=hexagonPerimeter2;whiteSpace=wrap;html=1;fixedSize=1;" vertex="1" parent="1">
          <mxGeometry x="325" y="440" width="150" height="40" as="geometry" />
        </mxCell>
        <mxCell id="BIZ6X_1vbxG-3BhxrjRd-19" style="edgeStyle=orthogonalEdgeStyle;rounded=0;orthogonalLoop=1;jettySize=auto;html=1;entryX=0;entryY=0.5;entryDx=0;entryDy=0;" edge="1" parent="1" source="BIZ6X_1vbxG-3BhxrjRd-20" target="BIZ6X_1vbxG-3BhxrjRd-18">
          <mxGeometry relative="1" as="geometry">
            <Array as="points">
              <mxPoint x="400" y="580" />
              <mxPoint x="305" y="580" />
              <mxPoint x="305" y="460" />
            </Array>
          </mxGeometry>
        </mxCell>
        <mxCell id="BIZ6X_1vbxG-3BhxrjRd-20" value="cout &amp;lt;&amp;lt; arr[i] &amp;lt;&amp;lt; &#39; &#39;;" style="shape=parallelogram;perimeter=parallelogramPerimeter;whiteSpace=wrap;html=1;fixedSize=1;" vertex="1" parent="1">
          <mxGeometry x="325" y="520" width="150" height="40" as="geometry" />
        </mxCell>
        <mxCell id="BIZ6X_1vbxG-3BhxrjRd-21" value="1" style="text;html=1;align=center;verticalAlign=middle;resizable=0;points=[];autosize=1;strokeColor=none;fillColor=none;" vertex="1" parent="1">
          <mxGeometry x="400" y="490" width="30" height="30" as="geometry" />
        </mxCell>
        <mxCell id="BIZ6X_1vbxG-3BhxrjRd-22" value="0" style="text;html=1;align=center;verticalAlign=middle;resizable=0;points=[];autosize=1;strokeColor=none;fillColor=none;" vertex="1" parent="1">
          <mxGeometry x="475" y="438" width="30" height="30" as="geometry" />
        </mxCell>
        <mxCell id="BIZ6X_1vbxG-3BhxrjRd-23" value="" style="edgeStyle=orthogonalEdgeStyle;rounded=0;orthogonalLoop=1;jettySize=auto;html=1;" edge="1" parent="1" source="BIZ6X_1vbxG-3BhxrjRd-24" target="BIZ6X_1vbxG-3BhxrjRd-26">
          <mxGeometry relative="1" as="geometry" />
        </mxCell>
        <mxCell id="BIZ6X_1vbxG-3BhxrjRd-24" value="cout &amp;lt;&amp;lt; endl;" style="shape=parallelogram;perimeter=parallelogramPerimeter;whiteSpace=wrap;html=1;fixedSize=1;" vertex="1" parent="1">
          <mxGeometry x="340" y="620" width="120" height="40" as="geometry" />
        </mxCell>
        <mxCell id="BIZ6X_1vbxG-3BhxrjRd-25" value="" style="edgeStyle=orthogonalEdgeStyle;rounded=0;orthogonalLoop=1;jettySize=auto;html=1;" edge="1" parent="1" source="BIZ6X_1vbxG-3BhxrjRd-26" target="BIZ6X_1vbxG-3BhxrjRd-28">
          <mxGeometry relative="1" as="geometry" />
        </mxCell>
        <mxCell id="BIZ6X_1vbxG-3BhxrjRd-26" value="int key;" style="whiteSpace=wrap;html=1;" vertex="1" parent="1">
          <mxGeometry x="340" y="680" width="120" height="40" as="geometry" />
        </mxCell>
        <mxCell id="BIZ6X_1vbxG-3BhxrjRd-27" value="" style="edgeStyle=orthogonalEdgeStyle;rounded=0;orthogonalLoop=1;jettySize=auto;html=1;" edge="1" parent="1" source="BIZ6X_1vbxG-3BhxrjRd-28" target="BIZ6X_1vbxG-3BhxrjRd-30">
          <mxGeometry relative="1" as="geometry" />
        </mxCell>
        <mxCell id="BIZ6X_1vbxG-3BhxrjRd-28" value="cout &amp;lt;&amp;lt; &quot;Введите ключ значение: &quot;;" style="shape=parallelogram;perimeter=parallelogramPerimeter;whiteSpace=wrap;html=1;fixedSize=1;" vertex="1" parent="1">
          <mxGeometry x="280" y="740" width="240" height="40" as="geometry" />
        </mxCell>
        <mxCell id="BIZ6X_1vbxG-3BhxrjRd-29" value="" style="edgeStyle=orthogonalEdgeStyle;rounded=0;orthogonalLoop=1;jettySize=auto;html=1;" edge="1" parent="1" source="BIZ6X_1vbxG-3BhxrjRd-30" target="BIZ6X_1vbxG-3BhxrjRd-32">
          <mxGeometry relative="1" as="geometry" />
        </mxCell>
        <mxCell id="BIZ6X_1vbxG-3BhxrjRd-30" value="cin &amp;gt;&amp;gt; key;" style="shape=parallelogram;perimeter=parallelogramPerimeter;whiteSpace=wrap;html=1;fixedSize=1;" vertex="1" parent="1">
          <mxGeometry x="340" y="800" width="120" height="40" as="geometry" />
        </mxCell>
        <mxCell id="BIZ6X_1vbxG-3BhxrjRd-31" value="" style="edgeStyle=orthogonalEdgeStyle;rounded=0;orthogonalLoop=1;jettySize=auto;html=1;" edge="1" parent="1" source="BIZ6X_1vbxG-3BhxrjRd-32" target="BIZ6X_1vbxG-3BhxrjRd-35">
          <mxGeometry relative="1" as="geometry" />
        </mxCell>
        <mxCell id="BIZ6X_1vbxG-3BhxrjRd-32" value="int ind = interpolation_search(arr, n, key);" style="whiteSpace=wrap;html=1;" vertex="1" parent="1">
          <mxGeometry x="280" y="860" width="240" height="40" as="geometry" />
        </mxCell>
        <mxCell id="BIZ6X_1vbxG-3BhxrjRd-33" value="" style="edgeStyle=orthogonalEdgeStyle;rounded=0;orthogonalLoop=1;jettySize=auto;html=1;exitX=0;exitY=0.5;exitDx=0;exitDy=0;" edge="1" parent="1" source="BIZ6X_1vbxG-3BhxrjRd-35" target="BIZ6X_1vbxG-3BhxrjRd-37">
          <mxGeometry relative="1" as="geometry" />
        </mxCell>
        <mxCell id="BIZ6X_1vbxG-3BhxrjRd-34" style="edgeStyle=orthogonalEdgeStyle;rounded=0;orthogonalLoop=1;jettySize=auto;html=1;" edge="1" parent="1" source="BIZ6X_1vbxG-3BhxrjRd-35" target="BIZ6X_1vbxG-3BhxrjRd-40">
          <mxGeometry relative="1" as="geometry">
            <mxPoint x="560" y="999.9999999999998" as="targetPoint" />
          </mxGeometry>
        </mxCell>
        <mxCell id="BIZ6X_1vbxG-3BhxrjRd-35" value="if (ind &amp;gt;= 0)" style="rhombus;whiteSpace=wrap;html=1;" vertex="1" parent="1">
          <mxGeometry x="345" y="920" width="110" height="40" as="geometry" />
        </mxCell>
        <mxCell id="BIZ6X_1vbxG-3BhxrjRd-36" style="edgeStyle=orthogonalEdgeStyle;rounded=0;orthogonalLoop=1;jettySize=auto;html=1;exitX=0.5;exitY=1;exitDx=0;exitDy=0;" edge="1" parent="1" source="BIZ6X_1vbxG-3BhxrjRd-37">
          <mxGeometry relative="1" as="geometry">
            <mxPoint x="400" y="1059.9999999999998" as="targetPoint" />
            <Array as="points">
              <mxPoint x="195" y="1060" />
            </Array>
          </mxGeometry>
        </mxCell>
        <mxCell id="BIZ6X_1vbxG-3BhxrjRd-37" value="cout &amp;lt;&amp;lt; &quot;Массив содержит искомый элемент по индексу: &quot; &amp;lt;&amp;lt; ind &amp;lt;&amp;lt; endl;" style="shape=parallelogram;perimeter=parallelogramPerimeter;whiteSpace=wrap;html=1;fixedSize=1;" vertex="1" parent="1">
          <mxGeometry x="45" y="1000" width="300" height="40" as="geometry" />
        </mxCell>
        <mxCell id="BIZ6X_1vbxG-3BhxrjRd-38" value="1" style="text;html=1;align=center;verticalAlign=middle;resizable=0;points=[];autosize=1;strokeColor=none;fillColor=none;" vertex="1" parent="1">
          <mxGeometry x="195" y="910" width="30" height="30" as="geometry" />
        </mxCell>
        <mxCell id="BIZ6X_1vbxG-3BhxrjRd-39" style="edgeStyle=orthogonalEdgeStyle;rounded=0;orthogonalLoop=1;jettySize=auto;html=1;exitX=0.5;exitY=1;exitDx=0;exitDy=0;" edge="1" parent="1" source="BIZ6X_1vbxG-3BhxrjRd-40">
          <mxGeometry relative="1" as="geometry">
            <mxPoint x="400" y="1059.9999999999998" as="targetPoint" />
            <Array as="points">
              <mxPoint x="600" y="1060" />
            </Array>
          </mxGeometry>
        </mxCell>
        <mxCell id="BIZ6X_1vbxG-3BhxrjRd-40" value="cout &amp;lt;&amp;lt; &quot;Массив не содержит искомый элемент&quot; &amp;lt;&amp;lt; endl;" style="shape=parallelogram;perimeter=parallelogramPerimeter;whiteSpace=wrap;html=1;fixedSize=1;" vertex="1" parent="1">
          <mxGeometry x="470" y="1000" width="260" height="40" as="geometry" />
        </mxCell>
        <mxCell id="BIZ6X_1vbxG-3BhxrjRd-41" value="0" style="text;html=1;align=center;verticalAlign=middle;resizable=0;points=[];autosize=1;strokeColor=none;fillColor=none;" vertex="1" parent="1">
          <mxGeometry x="575" y="910" width="30" height="30" as="geometry" />
        </mxCell>
        <mxCell id="BIZ6X_1vbxG-3BhxrjRd-42" value="" style="endArrow=classic;html=1;rounded=0;entryX=0.5;entryY=0;entryDx=0;entryDy=0;" edge="1" parent="1" target="BIZ6X_1vbxG-3BhxrjRd-43">
          <mxGeometry width="50" height="50" relative="1" as="geometry">
            <mxPoint x="400" y="1060" as="sourcePoint" />
            <mxPoint x="400" y="1080" as="targetPoint" />
          </mxGeometry>
        </mxCell>
        <mxCell id="BIZ6X_1vbxG-3BhxrjRd-43" value="return 0;" style="ellipse;whiteSpace=wrap;html=1;" vertex="1" parent="1">
          <mxGeometry x="340" y="1080" width="120" height="40" as="geometry" />
        </mxCell>
        <mxCell id="BIZ6X_1vbxG-3BhxrjRd-44" value="}" style="text;html=1;align=center;verticalAlign=middle;resizable=0;points=[];autosize=1;strokeColor=none;fillColor=none;" vertex="1" parent="1">
          <mxGeometry x="400" y="1120" width="30" height="30" as="geometry" />
        </mxCell>
      </root>
    </mxGraphModel>
  </diagram>
  <diagram id="8TQpPAmM1gH7qfJfGlv6" name="interpolation_search">
    <mxGraphModel dx="1613" dy="896" grid="1" gridSize="10" guides="1" tooltips="1" connect="1" arrows="1" fold="1" page="1" pageScale="1" pageWidth="827" pageHeight="1169" math="0" shadow="0">
      <root>
        <mxCell id="0" />
        <mxCell id="1" parent="0" />
        <mxCell id="TIh0WpIsQdBTz5BLv8hC-3" style="edgeStyle=orthogonalEdgeStyle;rounded=0;orthogonalLoop=1;jettySize=auto;html=1;entryX=0.5;entryY=0;entryDx=0;entryDy=0;" edge="1" parent="1" source="TIh0WpIsQdBTz5BLv8hC-1" target="TIh0WpIsQdBTz5BLv8hC-2">
          <mxGeometry relative="1" as="geometry" />
        </mxCell>
        <mxCell id="TIh0WpIsQdBTz5BLv8hC-1" value="int interpolation_search(int* arr, int n, int key)" style="shape=process;whiteSpace=wrap;html=1;backgroundOutline=1;size=0.03571428571428571;" vertex="1" parent="1">
          <mxGeometry x="290" y="40" width="280" height="40" as="geometry" />
        </mxCell>
        <mxCell id="TIh0WpIsQdBTz5BLv8hC-7" style="edgeStyle=orthogonalEdgeStyle;rounded=0;orthogonalLoop=1;jettySize=auto;html=1;entryX=0.5;entryY=0;entryDx=0;entryDy=0;" edge="1" parent="1" source="TIh0WpIsQdBTz5BLv8hC-2" target="TIh0WpIsQdBTz5BLv8hC-6">
          <mxGeometry relative="1" as="geometry" />
        </mxCell>
        <mxCell id="TIh0WpIsQdBTz5BLv8hC-2" value="int left = 0, right = n - 1;" style="whiteSpace=wrap;html=1;" vertex="1" parent="1">
          <mxGeometry x="360" y="120" width="140" height="40" as="geometry" />
        </mxCell>
        <mxCell id="TIh0WpIsQdBTz5BLv8hC-4" value="{" style="text;html=1;align=center;verticalAlign=middle;resizable=0;points=[];autosize=1;strokeColor=none;fillColor=none;" vertex="1" parent="1">
          <mxGeometry x="400" y="80" width="30" height="30" as="geometry" />
        </mxCell>
        <mxCell id="TIh0WpIsQdBTz5BLv8hC-9" value="" style="edgeStyle=orthogonalEdgeStyle;rounded=0;orthogonalLoop=1;jettySize=auto;html=1;" edge="1" parent="1" source="TIh0WpIsQdBTz5BLv8hC-6" target="TIh0WpIsQdBTz5BLv8hC-8">
          <mxGeometry relative="1" as="geometry" />
        </mxCell>
        <mxCell id="4HOjMGnUTDkBFU3YhXeS-35" style="edgeStyle=orthogonalEdgeStyle;rounded=0;orthogonalLoop=1;jettySize=auto;html=1;entryX=0.5;entryY=0;entryDx=0;entryDy=0;" edge="1" parent="1" source="TIh0WpIsQdBTz5BLv8hC-6" target="4HOjMGnUTDkBFU3YhXeS-36">
          <mxGeometry relative="1" as="geometry">
            <mxPoint x="670" y="280" as="targetPoint" />
          </mxGeometry>
        </mxCell>
        <mxCell id="TIh0WpIsQdBTz5BLv8hC-6" value="while (left &amp;lt;= right)" style="rhombus;whiteSpace=wrap;html=1;" vertex="1" parent="1">
          <mxGeometry x="350" y="200" width="160" height="40" as="geometry" />
        </mxCell>
        <mxCell id="TIh0WpIsQdBTz5BLv8hC-13" value="" style="edgeStyle=orthogonalEdgeStyle;rounded=0;orthogonalLoop=1;jettySize=auto;html=1;exitX=0;exitY=0.5;exitDx=0;exitDy=0;" edge="1" parent="1" source="TIh0WpIsQdBTz5BLv8hC-8" target="TIh0WpIsQdBTz5BLv8hC-12">
          <mxGeometry relative="1" as="geometry" />
        </mxCell>
        <mxCell id="4HOjMGnUTDkBFU3YhXeS-10" style="edgeStyle=orthogonalEdgeStyle;rounded=0;orthogonalLoop=1;jettySize=auto;html=1;" edge="1" parent="1" source="TIh0WpIsQdBTz5BLv8hC-8">
          <mxGeometry relative="1" as="geometry">
            <mxPoint x="430" y="480.0000000000001" as="targetPoint" />
            <Array as="points">
              <mxPoint x="550" y="300" />
              <mxPoint x="550" y="480" />
            </Array>
          </mxGeometry>
        </mxCell>
        <mxCell id="TIh0WpIsQdBTz5BLv8hC-8" value="if (left == right)" style="rhombus;whiteSpace=wrap;html=1;" vertex="1" parent="1">
          <mxGeometry x="350" y="280" width="160" height="40" as="geometry" />
        </mxCell>
        <mxCell id="TIh0WpIsQdBTz5BLv8hC-10" value="{" style="text;html=1;align=center;verticalAlign=middle;resizable=0;points=[];autosize=1;strokeColor=none;fillColor=none;" vertex="1" parent="1">
          <mxGeometry x="400" y="240" width="30" height="30" as="geometry" />
        </mxCell>
        <mxCell id="TIh0WpIsQdBTz5BLv8hC-11" value="1" style="text;html=1;align=center;verticalAlign=middle;resizable=0;points=[];autosize=1;strokeColor=none;fillColor=none;" vertex="1" parent="1">
          <mxGeometry x="430" y="250" width="30" height="30" as="geometry" />
        </mxCell>
        <mxCell id="4HOjMGnUTDkBFU3YhXeS-3" style="edgeStyle=orthogonalEdgeStyle;rounded=0;orthogonalLoop=1;jettySize=auto;html=1;entryX=0.5;entryY=0;entryDx=0;entryDy=0;" edge="1" parent="1" source="TIh0WpIsQdBTz5BLv8hC-12" target="4HOjMGnUTDkBFU3YhXeS-1">
          <mxGeometry relative="1" as="geometry">
            <mxPoint x="110" y="400.0000000000001" as="targetPoint" />
            <Array as="points">
              <mxPoint x="110" y="380" />
            </Array>
          </mxGeometry>
        </mxCell>
        <mxCell id="4HOjMGnUTDkBFU3YhXeS-6" style="edgeStyle=orthogonalEdgeStyle;rounded=0;orthogonalLoop=1;jettySize=auto;html=1;entryX=0.5;entryY=0;entryDx=0;entryDy=0;" edge="1" parent="1" source="TIh0WpIsQdBTz5BLv8hC-12" target="4HOjMGnUTDkBFU3YhXeS-5">
          <mxGeometry relative="1" as="geometry">
            <Array as="points">
              <mxPoint x="350" y="380" />
            </Array>
          </mxGeometry>
        </mxCell>
        <mxCell id="TIh0WpIsQdBTz5BLv8hC-12" value="if (arr[left] == key)" style="rhombus;whiteSpace=wrap;html=1;" vertex="1" parent="1">
          <mxGeometry x="150" y="360" width="160" height="40" as="geometry" />
        </mxCell>
        <mxCell id="4HOjMGnUTDkBFU3YhXeS-8" style="edgeStyle=orthogonalEdgeStyle;rounded=0;orthogonalLoop=1;jettySize=auto;html=1;exitX=0.5;exitY=1;exitDx=0;exitDy=0;" edge="1" parent="1" source="4HOjMGnUTDkBFU3YhXeS-1">
          <mxGeometry relative="1" as="geometry">
            <mxPoint x="230" y="460.0000000000001" as="targetPoint" />
            <Array as="points">
              <mxPoint x="110" y="460" />
            </Array>
          </mxGeometry>
        </mxCell>
        <mxCell id="4HOjMGnUTDkBFU3YhXeS-1" value="return left;" style="ellipse;whiteSpace=wrap;html=1;" vertex="1" parent="1">
          <mxGeometry x="50" y="400" width="120" height="40" as="geometry" />
        </mxCell>
        <mxCell id="4HOjMGnUTDkBFU3YhXeS-2" value="1" style="text;html=1;align=center;verticalAlign=middle;resizable=0;points=[];autosize=1;strokeColor=none;fillColor=none;" vertex="1" parent="1">
          <mxGeometry x="240" y="270" width="30" height="30" as="geometry" />
        </mxCell>
        <mxCell id="4HOjMGnUTDkBFU3YhXeS-4" value="1" style="text;html=1;align=center;verticalAlign=middle;resizable=0;points=[];autosize=1;strokeColor=none;fillColor=none;" vertex="1" parent="1">
          <mxGeometry x="110" y="350" width="30" height="30" as="geometry" />
        </mxCell>
        <mxCell id="4HOjMGnUTDkBFU3YhXeS-9" style="edgeStyle=orthogonalEdgeStyle;rounded=0;orthogonalLoop=1;jettySize=auto;html=1;" edge="1" parent="1" source="4HOjMGnUTDkBFU3YhXeS-5">
          <mxGeometry relative="1" as="geometry">
            <mxPoint x="230" y="460.0000000000001" as="targetPoint" />
            <Array as="points">
              <mxPoint x="350" y="460" />
            </Array>
          </mxGeometry>
        </mxCell>
        <mxCell id="4HOjMGnUTDkBFU3YhXeS-5" value="return -1;" style="ellipse;whiteSpace=wrap;html=1;" vertex="1" parent="1">
          <mxGeometry x="290" y="400" width="120" height="40" as="geometry" />
        </mxCell>
        <mxCell id="4HOjMGnUTDkBFU3YhXeS-7" value="0" style="text;html=1;align=center;verticalAlign=middle;resizable=0;points=[];autosize=1;strokeColor=none;fillColor=none;" vertex="1" parent="1">
          <mxGeometry x="320" y="350" width="30" height="30" as="geometry" />
        </mxCell>
        <mxCell id="4HOjMGnUTDkBFU3YhXeS-11" value="0" style="text;html=1;align=center;verticalAlign=middle;resizable=0;points=[];autosize=1;strokeColor=none;fillColor=none;" vertex="1" parent="1">
          <mxGeometry x="520" y="270" width="30" height="30" as="geometry" />
        </mxCell>
        <mxCell id="4HOjMGnUTDkBFU3YhXeS-12" value="" style="endArrow=classic;html=1;rounded=0;" edge="1" parent="1">
          <mxGeometry width="50" height="50" relative="1" as="geometry">
            <mxPoint x="230" y="460" as="sourcePoint" />
            <mxPoint x="430" y="480" as="targetPoint" />
            <Array as="points">
              <mxPoint x="230" y="480" />
            </Array>
          </mxGeometry>
        </mxCell>
        <mxCell id="4HOjMGnUTDkBFU3YhXeS-13" value="" style="endArrow=classic;html=1;rounded=0;" edge="1" parent="1" target="4HOjMGnUTDkBFU3YhXeS-14">
          <mxGeometry width="50" height="50" relative="1" as="geometry">
            <mxPoint x="430" y="480" as="sourcePoint" />
            <mxPoint x="430" y="500" as="targetPoint" />
          </mxGeometry>
        </mxCell>
        <mxCell id="4HOjMGnUTDkBFU3YhXeS-33" style="edgeStyle=orthogonalEdgeStyle;rounded=0;orthogonalLoop=1;jettySize=auto;html=1;entryX=0.5;entryY=0;entryDx=0;entryDy=0;" edge="1" parent="1" source="4HOjMGnUTDkBFU3YhXeS-14" target="4HOjMGnUTDkBFU3YhXeS-17">
          <mxGeometry relative="1" as="geometry" />
        </mxCell>
        <mxCell id="4HOjMGnUTDkBFU3YhXeS-14" value="int ind = left + ((key - arr[left]) * (right - left)) / (arr[right] - arr[left]);" style="rounded=0;whiteSpace=wrap;html=1;" vertex="1" parent="1">
          <mxGeometry x="255" y="500" width="350" height="40" as="geometry" />
        </mxCell>
        <mxCell id="4HOjMGnUTDkBFU3YhXeS-15" style="edgeStyle=orthogonalEdgeStyle;rounded=0;orthogonalLoop=1;jettySize=auto;html=1;entryX=0.5;entryY=0;entryDx=0;entryDy=0;" edge="1" parent="1" source="4HOjMGnUTDkBFU3YhXeS-17" target="4HOjMGnUTDkBFU3YhXeS-19">
          <mxGeometry relative="1" as="geometry">
            <mxPoint x="270" y="640.0000000000001" as="targetPoint" />
          </mxGeometry>
        </mxCell>
        <mxCell id="4HOjMGnUTDkBFU3YhXeS-16" value="" style="edgeStyle=orthogonalEdgeStyle;rounded=0;orthogonalLoop=1;jettySize=auto;html=1;exitX=1;exitY=0.5;exitDx=0;exitDy=0;" edge="1" parent="1" source="4HOjMGnUTDkBFU3YhXeS-17" target="4HOjMGnUTDkBFU3YhXeS-23">
          <mxGeometry relative="1" as="geometry" />
        </mxCell>
        <mxCell id="4HOjMGnUTDkBFU3YhXeS-17" value="if (arr[mid] == key)" style="rhombus;whiteSpace=wrap;html=1;" vertex="1" parent="1">
          <mxGeometry x="350" y="560" width="160" height="40" as="geometry" />
        </mxCell>
        <mxCell id="4HOjMGnUTDkBFU3YhXeS-18" style="edgeStyle=orthogonalEdgeStyle;rounded=0;orthogonalLoop=1;jettySize=auto;html=1;exitX=0.5;exitY=1;exitDx=0;exitDy=0;" edge="1" parent="1" source="4HOjMGnUTDkBFU3YhXeS-19">
          <mxGeometry relative="1" as="geometry">
            <mxPoint x="430" y="780" as="targetPoint" />
            <Array as="points">
              <mxPoint x="270" y="780" />
              <mxPoint x="430" y="780" />
            </Array>
          </mxGeometry>
        </mxCell>
        <mxCell id="4HOjMGnUTDkBFU3YhXeS-19" value="return mid;" style="ellipse;whiteSpace=wrap;html=1;" vertex="1" parent="1">
          <mxGeometry x="210" y="640" width="120" height="40" as="geometry" />
        </mxCell>
        <mxCell id="4HOjMGnUTDkBFU3YhXeS-20" value="1" style="text;html=1;align=center;verticalAlign=middle;resizable=0;points=[];autosize=1;strokeColor=none;fillColor=none;" vertex="1" parent="1">
          <mxGeometry x="270" y="550" width="30" height="30" as="geometry" />
        </mxCell>
        <mxCell id="4HOjMGnUTDkBFU3YhXeS-21" value="" style="edgeStyle=orthogonalEdgeStyle;rounded=0;orthogonalLoop=1;jettySize=auto;html=1;exitX=0;exitY=0.5;exitDx=0;exitDy=0;" edge="1" parent="1" source="4HOjMGnUTDkBFU3YhXeS-23" target="4HOjMGnUTDkBFU3YhXeS-25">
          <mxGeometry relative="1" as="geometry" />
        </mxCell>
        <mxCell id="4HOjMGnUTDkBFU3YhXeS-22" value="" style="edgeStyle=orthogonalEdgeStyle;rounded=0;orthogonalLoop=1;jettySize=auto;html=1;entryX=0.5;entryY=0;entryDx=0;entryDy=0;exitX=1;exitY=0.5;exitDx=0;exitDy=0;" edge="1" parent="1" source="4HOjMGnUTDkBFU3YhXeS-23" target="4HOjMGnUTDkBFU3YhXeS-29">
          <mxGeometry relative="1" as="geometry" />
        </mxCell>
        <mxCell id="4HOjMGnUTDkBFU3YhXeS-23" value="if (arr[mid] &amp;lt; key)" style="rhombus;whiteSpace=wrap;html=1;" vertex="1" parent="1">
          <mxGeometry x="510" y="640" width="160" height="40" as="geometry" />
        </mxCell>
        <mxCell id="4HOjMGnUTDkBFU3YhXeS-24" style="edgeStyle=orthogonalEdgeStyle;rounded=0;orthogonalLoop=1;jettySize=auto;html=1;exitX=0.5;exitY=1;exitDx=0;exitDy=0;" edge="1" parent="1" source="4HOjMGnUTDkBFU3YhXeS-25">
          <mxGeometry relative="1" as="geometry">
            <mxPoint x="589.9999999999998" y="740.0000000000001" as="targetPoint" />
            <Array as="points">
              <mxPoint x="450" y="740" />
            </Array>
          </mxGeometry>
        </mxCell>
        <mxCell id="4HOjMGnUTDkBFU3YhXeS-25" value="left = mid + 1;" style="whiteSpace=wrap;html=1;" vertex="1" parent="1">
          <mxGeometry x="390" y="680" width="120" height="40" as="geometry" />
        </mxCell>
        <mxCell id="4HOjMGnUTDkBFU3YhXeS-26" value="1" style="text;html=1;align=center;verticalAlign=middle;resizable=0;points=[];autosize=1;strokeColor=none;fillColor=none;" vertex="1" parent="1">
          <mxGeometry x="450" y="630" width="30" height="30" as="geometry" />
        </mxCell>
        <mxCell id="4HOjMGnUTDkBFU3YhXeS-27" value="0" style="text;html=1;align=center;verticalAlign=middle;resizable=0;points=[];autosize=1;strokeColor=none;fillColor=none;" vertex="1" parent="1">
          <mxGeometry x="560" y="550" width="30" height="30" as="geometry" />
        </mxCell>
        <mxCell id="4HOjMGnUTDkBFU3YhXeS-28" style="edgeStyle=orthogonalEdgeStyle;rounded=0;orthogonalLoop=1;jettySize=auto;html=1;" edge="1" parent="1" source="4HOjMGnUTDkBFU3YhXeS-29">
          <mxGeometry relative="1" as="geometry">
            <mxPoint x="589.9999999999998" y="740.0000000000001" as="targetPoint" />
            <Array as="points">
              <mxPoint x="730" y="740" />
            </Array>
          </mxGeometry>
        </mxCell>
        <mxCell id="4HOjMGnUTDkBFU3YhXeS-29" value="right = mid - 1;" style="whiteSpace=wrap;html=1;" vertex="1" parent="1">
          <mxGeometry x="670" y="680" width="120" height="40" as="geometry" />
        </mxCell>
        <mxCell id="4HOjMGnUTDkBFU3YhXeS-30" value="0" style="text;html=1;align=center;verticalAlign=middle;resizable=0;points=[];autosize=1;strokeColor=none;fillColor=none;" vertex="1" parent="1">
          <mxGeometry x="700" y="630" width="30" height="30" as="geometry" />
        </mxCell>
        <mxCell id="4HOjMGnUTDkBFU3YhXeS-31" value="" style="endArrow=classic;html=1;rounded=0;" edge="1" parent="1">
          <mxGeometry width="50" height="50" relative="1" as="geometry">
            <mxPoint x="590" y="740" as="sourcePoint" />
            <mxPoint x="430" y="780" as="targetPoint" />
            <Array as="points">
              <mxPoint x="590" y="780" />
            </Array>
          </mxGeometry>
        </mxCell>
        <mxCell id="4HOjMGnUTDkBFU3YhXeS-32" value="}" style="text;html=1;align=center;verticalAlign=middle;resizable=0;points=[];autosize=1;strokeColor=none;fillColor=none;" vertex="1" parent="1">
          <mxGeometry x="430" y="780" width="30" height="30" as="geometry" />
        </mxCell>
        <mxCell id="4HOjMGnUTDkBFU3YhXeS-34" value="" style="endArrow=classic;html=1;rounded=0;" edge="1" parent="1">
          <mxGeometry width="50" height="50" relative="1" as="geometry">
            <mxPoint x="430" y="780" as="sourcePoint" />
            <mxPoint x="430" y="180" as="targetPoint" />
            <Array as="points">
              <mxPoint x="430" y="800" />
              <mxPoint x="30" y="800" />
              <mxPoint x="30" y="500" />
              <mxPoint x="30" y="180" />
            </Array>
          </mxGeometry>
        </mxCell>
        <mxCell id="4HOjMGnUTDkBFU3YhXeS-36" value="return -1;" style="ellipse;whiteSpace=wrap;html=1;" vertex="1" parent="1">
          <mxGeometry x="610" y="280" width="120" height="40" as="geometry" />
        </mxCell>
        <mxCell id="4HOjMGnUTDkBFU3YhXeS-37" value="0" style="text;html=1;align=center;verticalAlign=middle;resizable=0;points=[];autosize=1;strokeColor=none;fillColor=none;" vertex="1" parent="1">
          <mxGeometry x="640" y="190" width="30" height="30" as="geometry" />
        </mxCell>
        <mxCell id="4HOjMGnUTDkBFU3YhXeS-38" value="}" style="text;html=1;align=center;verticalAlign=middle;resizable=0;points=[];autosize=1;strokeColor=none;fillColor=none;" vertex="1" parent="1">
          <mxGeometry x="670" y="320" width="30" height="30" as="geometry" />
        </mxCell>
      </root>
    </mxGraphModel>
  </diagram>
</mxfile>
